<svg width="139" height="34" viewBox="0 0 139 34" fill="none" xmlns="http://www.w3.org/2000/svg">
<path d="M71.4615 11.3342H72.4631V16.2747H73.7295L77.7432 11.3342H79.0417L74.629 16.7659L79.6235 22.3051H78.2654L73.7451 17.2919H72.4631V22.3051H71.4615V11.3342Z" fill="#1B1B1B"/>
<path fill-rule="evenodd" clip-rule="evenodd" d="M46.2366 7.62881L40.6484 21.3605H38.9085V25.6472H39.9102V22.3777H53.2175V25.6472H54.2192V21.3605H52.9086L47.3204 7.62881H46.2366ZM46.7785 8.96041L51.8248 21.3605H41.7322L46.7785 8.96041Z" fill="#1B1B1B"/>
<path fill-rule="evenodd" clip-rule="evenodd" d="M61.8745 10.8256C58.6344 10.8256 56.0078 13.493 56.0078 16.7833C56.0078 20.0736 58.6344 22.741 61.8745 22.741C65.1146 22.741 67.7412 20.0736 67.7412 16.7833C67.7412 13.493 65.1146 10.8256 61.8745 10.8256ZM56.8663 16.7833C56.8663 13.9745 59.1086 11.6975 61.8745 11.6975C64.6404 11.6975 66.8826 13.9745 66.8826 16.7833C66.8826 19.5921 64.6404 21.8691 61.8745 21.8691C59.1086 21.8691 56.8663 19.5921 56.8663 16.7833Z" fill="#1B1B1B"/>
<path d="M81.4063 12.2787H85.6274V22.3051H86.6291V12.2787H90.8502V11.2615H81.4063V12.2787Z" fill="#1B1B1B"/>
<path fill-rule="evenodd" clip-rule="evenodd" d="M103.514 16.7833C103.514 19.8329 101.079 22.3051 98.0763 22.3051C95.0733 22.3051 92.6388 19.8329 92.6388 16.7833C92.6388 13.7337 95.0733 11.2615 98.0763 11.2615C101.079 11.2615 103.514 13.7337 103.514 16.7833ZM102.655 16.7833C102.655 19.3514 100.605 21.4332 98.0763 21.4332C95.5474 21.4332 93.4974 19.3514 93.4974 16.7833C93.4974 14.2152 95.5474 12.1334 98.0763 12.1334C100.605 12.1334 102.655 14.2152 102.655 16.7833Z" fill="#1B1B1B"/>
<path fill-rule="evenodd" clip-rule="evenodd" d="M108.164 11.3342V13.6938C109.141 12.2263 110.795 11.2615 112.671 11.2615C115.674 11.2615 118.109 13.7337 118.109 16.7833C118.109 19.8329 115.674 22.3051 112.671 22.3051C110.795 22.3051 109.141 21.3403 108.164 19.8728V26.3737H107.162V11.3342H108.164ZM108.164 15.96V17.6066C108.547 19.7819 110.419 21.4332 112.671 21.4332C115.2 21.4332 117.25 19.3514 117.25 16.7833C117.25 14.2152 115.2 12.1334 112.671 12.1334C110.419 12.1334 108.547 13.7847 108.164 15.96Z" fill="#1B1B1B"/>
<path d="M126.98 7.62881H128.125V20.4753L137.855 7.62881H139V22.3051H137.855V9.45852L128.125 22.3051H126.98V7.62881Z" fill="#1B1B1B"/>
<path fill-rule="evenodd" clip-rule="evenodd" d="M28.2583 0.142787L14.6614 5.84908C13.8364 5.50256 10.4801 4.09329 7.2627 2.74942C5.53514 2.02785 3.84695 1.32486 2.61197 0.815315C1.99478 0.560665 1.48935 0.353737 1.14847 0.216849C0.978934 0.148769 0.846354 0.0965029 0.760305 0.0642054C0.721766 0.0497406 0.677845 0.0336583 0.643081 0.0233581C0.63414 0.0207092 0.615464 0.0153109 0.592826 0.0106637C0.582199 0.00848227 0.559849 0.00417091 0.531516 0.00182403L0.530228 0.001707C0.516571 0.000432221 0.426899 -0.00793791 0.323539 0.0288605C0.258146 0.0575691 0.117241 0.168116 0.0541078 0.256657C0.0184822 0.342237 0.00145956 0.485968 0.0045795 0.588554L0 0.589246L4.81288 33.4363C4.89814 34.0182 5.63764 34.1988 5.97402 33.7198L10.7548 26.9123L12.1404 27.9461L12.7334 27.1264L11.3364 26.0841L12.0507 25.0671L14.0108 26.5015L14.5963 25.6762L13.7164 25.0323L17.3389 20.0435C17.5526 19.7491 17.487 19.3339 17.1933 19.1222L16.6294 18.7158L17.9188 17.0281L17.1274 16.4046L15.8118 18.1266L15.2101 17.693C14.9215 17.4849 14.5216 17.5525 14.3149 17.8442L10.7587 22.8614L9.73127 22.1161L9.72958 22.1149L9.1457 22.9414L9.14739 22.9426L11.238 24.4725L10.5292 25.4818L9.22769 24.5108L8.63465 25.3305L9.94751 26.31L5.67316 32.3964L1.30042 2.55316L11.1042 16.6466L11.9223 16.0597L1.86832 1.60661C1.98533 1.65475 2.10769 1.70517 2.23494 1.75767C3.46783 2.26636 5.15439 2.96866 6.88169 3.69013C10.3361 5.13295 13.9507 6.6513 14.4189 6.84797C14.5906 6.92011 14.7646 6.90637 14.9072 6.8465L28.0546 1.32889L23.3657 32.4154L18.0718 24.9914L17.2605 25.5879L23.0658 33.729C23.4035 34.2026 24.1366 34.0224 24.2238 33.4445L29.1407 0.846109C29.2166 0.34271 28.7218 -0.0517294 28.2583 0.142787ZM12.9037 24.4376L12.2137 23.9327C12.1848 23.9013 12.1526 23.8725 12.1173 23.8469L11.5738 23.4526L14.9202 18.7313L16.3165 19.7376L12.9037 24.4376Z" fill="#1B1B1B"/>
</svg>
